<mxfile host="app.diagrams.net" agent="Mozilla/5.0 (Windows NT 10.0; Win64; x64) AppleWebKit/537.36 (KHTML, like Gecko) Chrome/131.0.0.0 Safari/537.36" version="25.0.1">
  <diagram name="Page-1" id="VRR46AlsyjJ4SlKrulmr">
    <mxGraphModel dx="1434" dy="738" grid="1" gridSize="10" guides="1" tooltips="1" connect="1" arrows="1" fold="1" page="1" pageScale="1" pageWidth="850" pageHeight="1100" math="0" shadow="0">
      <root>
        <mxCell id="0" />
        <mxCell id="1" parent="0" />
        <mxCell id="T4L-EVFVCEFek7XqLwHy-3" value="" style="edgeStyle=orthogonalEdgeStyle;rounded=0;orthogonalLoop=1;jettySize=auto;html=1;" edge="1" parent="1" source="T4L-EVFVCEFek7XqLwHy-1" target="T4L-EVFVCEFek7XqLwHy-2">
          <mxGeometry relative="1" as="geometry" />
        </mxCell>
        <mxCell id="T4L-EVFVCEFek7XqLwHy-1" value="Start" style="ellipse;whiteSpace=wrap;html=1;" vertex="1" parent="1">
          <mxGeometry x="350" y="10" width="120" height="80" as="geometry" />
        </mxCell>
        <mxCell id="T4L-EVFVCEFek7XqLwHy-5" value="" style="edgeStyle=orthogonalEdgeStyle;rounded=0;orthogonalLoop=1;jettySize=auto;html=1;" edge="1" parent="1" source="T4L-EVFVCEFek7XqLwHy-2" target="T4L-EVFVCEFek7XqLwHy-4">
          <mxGeometry relative="1" as="geometry" />
        </mxCell>
        <mxCell id="T4L-EVFVCEFek7XqLwHy-2" value="ifstream file(filename);" style="whiteSpace=wrap;html=1;" vertex="1" parent="1">
          <mxGeometry x="350" y="110" width="120" height="60" as="geometry" />
        </mxCell>
        <mxCell id="T4L-EVFVCEFek7XqLwHy-7" value="" style="edgeStyle=orthogonalEdgeStyle;rounded=0;orthogonalLoop=1;jettySize=auto;html=1;" edge="1" parent="1" source="T4L-EVFVCEFek7XqLwHy-4" target="T4L-EVFVCEFek7XqLwHy-6">
          <mxGeometry relative="1" as="geometry" />
        </mxCell>
        <mxCell id="T4L-EVFVCEFek7XqLwHy-4" value="if (!file.is_open()) {&lt;br&gt;&amp;nbsp; &amp;nbsp; &amp;nbsp; &amp;nbsp; Display &quot;Error opening file.&quot; &amp;lt;&amp;lt; endl;" style="shape=parallelogram;perimeter=parallelogramPerimeter;whiteSpace=wrap;html=1;fixedSize=1;" vertex="1" parent="1">
          <mxGeometry x="280" y="190" width="260" height="60" as="geometry" />
        </mxCell>
        <mxCell id="T4L-EVFVCEFek7XqLwHy-6" value="End" style="ellipse;whiteSpace=wrap;html=1;" vertex="1" parent="1">
          <mxGeometry x="370" y="320" width="80" height="80" as="geometry" />
        </mxCell>
      </root>
    </mxGraphModel>
  </diagram>
</mxfile>
